<svg width="320" height="462" viewBox="0 0 320 462" fill="none" xmlns="http://www.w3.org/2000/svg">
<g filter="url(#filter0_f_1_14857)">
<ellipse cx="148.24" cy="210.843" rx="96.2399" ry="101.843" fill="url(#paint0_radial_1_14857)"/>
</g>
<g filter="url(#filter1_f_1_14857)">
<ellipse cx="167.934" cy="271.206" rx="98.4633" ry="81.9462" fill="url(#paint1_radial_1_14857)"/>
</g>
<g opacity="0.5">
<path d="M49.5901 277.944C53.5808 249.399 23.8171 236.889 41.0541 213.244C58.2884 189.588 83.8254 207.253 129.152 150.477C149.025 125.589 196.18 152.007 235.496 152.938C266.069 153.667 254.91 198.71 269.499 214.51C299.249 246.726 275.016 256.139 257.779 279.783C240.545 303.439 231.727 340.804 198.981 349.807C166.234 358.809 134.816 341.626 104.258 348.977C72.596 356.595 42.9056 325.666 49.5901 277.944Z" stroke="white" stroke-width="0.722667" stroke-linecap="round" stroke-linejoin="round"/>
<path d="M49.8135 277.848C53.7934 250.114 24.6574 238.035 41.5942 215.027C58.5282 192.009 84.2476 209.093 127.185 153.432C147.187 127.495 192.469 152.847 232.34 154.024C266.364 155.035 247.97 201.547 265.875 216.69C299.324 244.969 273.707 257.815 256.206 280.229C238.135 302.884 228.157 336.297 196.634 348.414C165.417 359.734 133.2 339.502 103.249 346.71C72.2113 354.192 43.1853 324.215 49.8435 277.852L49.8135 277.848Z" stroke="white" stroke-width="0.69376" stroke-linecap="round" stroke-linejoin="round"/>
<path d="M50.0276 277.752C53.9829 250.833 25.4884 239.181 42.1113 216.815C58.7451 194.434 84.5787 210.896 125.182 156.396C145.297 129.402 188.725 153.707 229.133 155.123C266.628 156.434 240.704 204.401 262.2 218.882C298.706 243.462 272.348 259.503 254.58 280.676C235.662 302.345 224.545 331.776 194.234 347.022C164.558 360.646 131.541 337.363 102.19 344.455C71.7736 351.791 43.4311 322.783 50.0467 277.771L50.0276 277.752Z" stroke="white" stroke-width="0.66124" stroke-linecap="round" stroke-linejoin="round"/>
<path d="M50.2504 277.655C54.1923 251.536 26.3146 240.33 42.6482 218.587C58.9817 196.843 84.8422 212.622 123.198 159.342C143.393 131.277 184.992 154.577 225.944 156.193C266.896 157.808 233.211 207.306 258.539 221.035C297.575 242.216 271.003 261.152 252.958 281.098C233.192 301.782 220.922 327.235 191.835 345.595C163.689 361.537 129.872 335.204 101.129 342.153C71.3503 349.35 43.6612 321.309 50.2477 277.644L50.2504 277.655Z" stroke="white" stroke-width="0.632333" stroke-linecap="round" stroke-linejoin="round"/>
<path d="M50.4783 277.556C54.3956 252.252 27.1594 241.473 43.1927 220.367C59.226 199.261 85.0614 214.323 121.222 162.298C141.492 133.139 181.255 155.471 222.778 157.28C267.176 159.215 225.566 210.349 254.891 223.22C296.107 241.305 269.672 262.833 251.359 281.537C230.743 301.225 217.324 322.71 189.463 344.196C162.858 362.441 128.23 333.074 100.094 339.879C70.94 346.941 43.929 319.848 50.4756 277.545L50.4783 277.556Z" stroke="white" stroke-width="0.603427" stroke-linecap="round" stroke-linejoin="round"/>
<path d="M50.6882 277.461C54.581 252.972 27.9726 242.623 43.7057 222.155C59.4388 201.686 85.1699 216.004 119.228 165.258C139.542 135 177.503 156.38 219.581 158.374C267.444 160.648 217.731 213.587 251.226 225.409C294.404 240.649 268.325 264.529 249.745 281.991C228.282 300.693 213.723 318.196 187.073 342.8C161.997 363.363 126.57 330.946 99.0446 337.62C70.5118 344.535 44.1706 318.416 50.6882 277.461Z" stroke="white" stroke-width="0.570907" stroke-linecap="round" stroke-linejoin="round"/>
<path d="M50.914 277.364C54.7933 253.676 28.8154 243.769 44.2482 223.938C59.681 204.107 85.2423 217.652 117.253 168.228C137.576 136.846 173.77 157.3 216.4 159.468C267.714 162.084 209.823 217.005 247.576 227.596C292.612 240.227 266.991 266.213 248.145 282.433C225.833 300.149 210.123 313.674 184.699 341.404C161.164 364.27 124.939 328.815 98.0082 335.35C70.1132 342.125 44.4364 316.958 50.914 277.364Z" stroke="white" stroke-width="0.542" stroke-linecap="round" stroke-linejoin="round"/>
<path d="M51.123 277.27C54.9777 254.396 29.6413 244.916 44.7738 225.723C59.9064 206.53 85.2487 219.277 115.258 171.188C135.544 138.67 170.02 158.221 213.216 160.559C267.967 163.521 201.855 220.606 243.923 229.782C290.772 239.983 265.654 267.894 246.544 282.884C223.385 299.615 206.535 309.157 182.324 340.016C160.319 365.201 123.292 326.685 96.9712 333.088C69.6977 339.717 44.6907 315.523 51.1394 277.277L51.123 277.27Z" stroke="white" stroke-width="0.513093" stroke-linecap="round" stroke-linejoin="round"/>
<path d="M51.3456 277.174C55.1895 255.112 30.4672 246.067 45.2995 227.511C60.1318 208.955 85.2059 220.884 113.277 174.148C133.495 140.49 166.27 159.146 210.032 161.654C268.24 164.981 193.861 224.411 240.267 231.959C288.938 239.887 264.328 269.564 244.924 283.32C220.914 299.053 202.918 304.64 179.927 338.602C159.464 366.09 121.625 324.539 95.9152 330.81C69.2659 337.304 44.9397 314.069 51.3456 277.174Z" stroke="white" stroke-width="0.480573" stroke-linecap="round" stroke-linejoin="round"/>
<path d="M51.558 277.078C55.3747 255.82 31.2965 247.213 45.8286 229.294C60.3607 211.376 85.1065 222.478 111.285 177.107C131.387 142.287 162.526 160.077 206.834 162.737C268.485 166.432 185.861 228.358 236.601 234.136C287.148 239.895 262.978 271.236 243.31 283.762C218.467 298.506 199.318 300.115 177.54 337.206C158.606 367.012 119.982 322.407 94.8653 328.539C68.8401 334.898 45.1783 312.615 51.558 277.078Z" stroke="white" stroke-width="0.451667" stroke-linecap="round" stroke-linejoin="round"/>
<path d="M51.7825 276.981C55.5747 256.538 32.138 248.358 46.3699 231.077C60.6017 213.796 84.9563 224.053 109.306 180.065C129.228 144.064 158.77 161.086 203.666 163.826C268.726 167.996 177.912 232.463 232.95 236.323C285.424 240.008 261.646 272.931 241.708 284.203C216.017 297.962 195.716 295.592 175.161 335.797C157.755 367.91 118.333 320.267 93.8249 326.257C68.4349 332.464 45.4428 311.156 51.7798 276.97L51.7825 276.981Z" stroke="white" stroke-width="0.42276" stroke-linecap="round" stroke-linejoin="round"/>
<path d="M51.9913 276.885C55.7725 257.253 32.95 249.507 46.8789 232.853C60.8105 216.209 84.7438 225.616 107.308 183.013C127.005 145.818 155.011 161.972 200.465 164.908C268.979 169.431 169.974 236.681 229.281 238.499C283.769 240.17 260.292 274.603 240.09 284.645C213.552 297.418 192.098 291.07 172.77 334.401C156.907 368.828 116.672 318.139 92.774 323.997C68.0081 330.069 45.6805 309.712 51.9913 276.885Z" stroke="white" stroke-width="0.39024" stroke-linecap="round" stroke-linejoin="round"/>
<path d="M52.2183 276.787C55.9724 257.959 33.794 250.652 47.4227 234.635C61.054 218.629 84.5086 227.19 105.331 185.97C124.728 147.579 151.277 162.879 197.282 165.989C269.248 170.855 162.095 241.008 225.63 240.674C282.2 240.373 258.957 276.274 238.488 285.075C211.1 296.851 188.51 286.531 170.394 332.992C156.058 369.726 115.037 315.983 91.7361 321.713C67.5944 327.65 45.9339 308.256 52.2156 276.776L52.2183 276.787Z" stroke="white" stroke-width="0.361333" stroke-linecap="round" stroke-linejoin="round"/>
<path d="M233.686 284.392C208.13 296.268 185.408 286.19 168.051 330.873C154.224 366.502 115.569 315.403 92.4869 321.073C76.4874 325 62.4761 318.114 55.2928 303.644C51.6185 296.184 50.3436 286.919 52.3091 276.376C55.7589 257.74 36.4277 249.771 50.1631 234.569C63.6986 219.446 85.3918 227.901 105.776 187.778C124.044 151.689 149.999 165.173 193.427 168.364C260.448 173.105 162.963 238.718 220.94 239.912C272.568 240.97 254.16 274.879 233.686 284.392Z" stroke="white" stroke-width="0.39024" stroke-linecap="round" stroke-linejoin="round"/>
<path d="M228.878 283.687C205.133 295.572 182.284 285.818 165.701 328.732C152.371 363.26 116.106 314.785 93.2158 320.402C77.1067 324.36 63.9128 317.659 56.0271 302.996C52.0219 295.495 50.5991 286.282 52.3943 275.943C55.5398 257.499 39.0722 248.875 52.898 234.481C66.3403 220.253 86.2832 228.585 106.215 189.564C123.368 155.772 148.694 167.535 189.564 170.705C251.595 175.503 163.782 236.406 216.228 239.121C262.884 241.533 249.363 273.423 228.875 283.676L228.878 283.687Z" stroke="white" stroke-width="0.42276" stroke-linecap="round" stroke-linejoin="round"/>
<path d="M224.077 282.991C202.11 294.809 179.181 285.452 163.359 326.6C150.538 360.022 116.637 314.18 93.9681 319.748C77.7632 323.732 65.3702 317.209 56.7848 302.365C52.4597 294.806 50.8754 285.65 52.4894 275.53C55.3169 257.282 41.7265 248 55.629 234.417C68.9618 221.076 87.1596 229.309 106.651 191.374C122.676 159.894 147.39 169.883 185.697 173.07C242.774 177.83 164.55 234.106 211.529 238.361C253.171 242.139 244.583 271.961 224.063 282.995L224.077 282.991Z" stroke="white" stroke-width="0.451667" stroke-linecap="round" stroke-linejoin="round"/>
<path d="M219.271 282.3C199.075 293.957 176.072 285.091 161.025 324.47C148.7 356.79 117.189 313.572 94.7286 319.095C78.4252 323.095 66.7865 316.799 57.5534 301.746C52.8974 294.146 51.1953 285.046 52.6089 275.126C55.176 257.07 44.3916 247.137 58.3983 234.359C71.6378 221.911 88.1782 230.045 107.108 193.182C122.084 164.029 146.103 172.206 181.852 175.433C233.969 180.133 165.278 231.786 206.835 237.591C243.442 242.705 239.813 270.44 219.271 282.3Z" stroke="white" stroke-width="0.480573" stroke-linecap="round" stroke-linejoin="round"/>
<path d="M214.467 281.604C195.997 293.04 172.952 284.728 158.679 322.338C146.864 353.553 117.717 312.967 95.475 318.43C79.0621 322.459 68.238 316.338 58.3052 301.103C53.3183 293.461 51.4683 284.414 52.698 274.702C54.9581 256.827 47.04 246.251 61.137 234.28C74.2834 222.727 89.0761 230.749 107.551 194.977C121.414 168.133 144.818 174.525 177.996 177.795C225.153 182.434 165.918 229.449 202.146 236.827C233.653 243.247 235.036 268.879 214.47 281.616L214.467 281.604Z" stroke="white" stroke-width="0.513093" stroke-linecap="round" stroke-linejoin="round"/>
<path d="M209.663 280.899C192.877 292.053 169.849 284.364 156.334 320.197C145.015 350.31 118.258 312.349 96.2242 317.767C79.7155 321.822 69.6951 315.89 59.0598 300.462C53.7531 292.764 51.7442 283.784 52.8036 274.275C54.7594 256.593 49.6885 245.355 63.8923 234.199C76.9291 223.533 89.9905 231.452 108.01 196.77C120.758 172.224 143.533 176.833 174.153 180.143C216.349 184.711 166.484 227.038 197.454 236.042C223.803 243.712 230.23 267.246 209.679 280.906L209.663 280.899Z" stroke="white" stroke-width="0.542" stroke-linecap="round" stroke-linejoin="round"/>
<path d="M204.855 280.204C189.722 291.012 166.738 283.998 153.984 318.066C143.175 347.074 118.781 311.745 96.9529 317.106C80.3346 321.192 71.1699 315.422 59.7939 299.824C54.1809 292.065 51.9968 283.146 52.8749 273.856C54.5264 256.366 52.319 244.473 66.5995 234.128C79.5432 224.357 90.8569 232.165 108.422 198.573C120.057 176.336 142.212 179.137 170.263 182.502C207.504 186.972 166.874 224.528 192.731 235.276C213.879 244.073 225.364 265.577 204.858 280.215L204.855 280.204Z" stroke="white" stroke-width="0.570907" stroke-linecap="round" stroke-linejoin="round"/>
<path d="M200.051 279.512C186.514 289.917 163.618 283.64 151.639 315.938C141.325 343.844 119.325 311.151 97.7019 316.456C80.985 320.557 72.624 314.977 60.5483 299.197C54.6155 291.381 52.2724 282.53 52.9803 273.443C54.3111 256.138 54.9837 243.598 69.3546 234.061C82.1887 225.176 91.7547 232.874 108.878 200.368C119.385 180.432 140.932 181.422 166.403 184.856C198.702 189.212 167.247 221.809 188.023 234.497C203.954 244.234 220.438 263.821 200.037 279.516L200.051 279.512Z" stroke="white" stroke-width="0.603427" stroke-linecap="round" stroke-linejoin="round"/>
<path d="M195.246 278.802C183.27 288.778 160.511 283.259 149.292 313.792C139.488 340.593 119.851 310.532 98.4498 315.788C81.6234 319.919 74.0797 314.524 61.3015 298.552C55.0516 290.69 52.5469 281.895 53.0708 273.016C54.0974 255.903 57.6198 242.712 72.0948 233.979C84.8358 225.989 92.6377 233.568 109.323 202.161C118.686 184.529 139.652 183.688 162.548 187.215C189.896 191.424 167.707 218.771 183.333 233.719C194.179 244.094 215.439 261.994 195.246 278.802Z" stroke="white" stroke-width="0.632333" stroke-linecap="round" stroke-linejoin="round"/>
<path d="M190.441 278.111C179.96 287.628 157.406 282.909 146.959 311.661C137.651 337.361 120.405 309.924 99.209 315.124C82.2868 319.281 75.5441 314.064 62.0662 297.91C55.4963 289.992 52.8027 281.261 53.1865 272.589C53.8513 255.672 60.2947 241.823 74.8601 233.898C87.5052 226.79 93.5294 234.255 109.792 203.953C118.024 188.611 138.402 185.917 158.716 189.563C181.132 193.583 168.694 215.33 178.654 232.946C184.75 243.709 210.316 260.087 190.454 278.107L190.441 278.111Z" stroke="white" stroke-width="0.66124" stroke-linecap="round" stroke-linejoin="round"/>
<path d="M185.637 277.416C176.588 286.455 154.286 282.547 144.613 309.53C135.815 334.124 120.932 309.319 99.958 314.47C82.9236 318.646 77.0009 313.626 62.8206 297.279C55.9198 289.319 53.0783 280.641 53.2781 272.177C53.6387 255.452 62.9293 240.941 77.5877 233.835C90.1259 227.625 94.367 234.953 110.224 205.763C117.311 192.715 137.131 188.111 154.845 191.928C172.36 195.704 170.601 211.824 173.949 232.175C175.789 243.324 204.993 258.075 185.65 277.412L185.637 277.416Z" stroke="white" stroke-width="0.69376" stroke-linecap="round" stroke-linejoin="round"/>
<path d="M169.239 231.397C167.121 243.32 199.412 255.968 180.842 276.709C173.157 285.289 151.189 282.17 142.277 307.387C133.975 330.88 121.482 308.7 100.702 313.809C83.5722 318.012 78.4532 313.181 63.5567 296.645C41.8922 272.582 58.2013 243.208 80.3219 233.749C92.7669 228.434 95.181 235.624 110.646 207.544C121.565 187.748 178 181.922 169.223 231.389L169.239 231.397Z" stroke="white" stroke-width="0.722667" stroke-linecap="round" stroke-linejoin="round"/>
<path d="M176.571 276.65C170.591 283.325 155.549 283.069 145.339 295.866C143.101 298.653 141.063 302.036 139.454 306.243C131.095 328.026 119.066 307.914 99.1248 312.503C82.7591 316.303 77.7509 311.876 63.6446 296.329C59.6103 291.888 56.9227 287.222 55.3185 282.511C48.9053 263.377 61.8492 244.242 78.2741 236.53C85.7783 233.007 89.7474 233.931 95.4057 228.538C98.8906 225.228 103.011 219.993 109.506 210.461C121.625 192.7 169.964 188.834 165.36 233.595C164.259 244.334 194.505 256.603 176.554 276.643L176.571 276.65Z" stroke="white" stroke-width="0.66124" stroke-linecap="round" stroke-linejoin="round"/>
<path d="M172.299 276.595C166.654 282.9 152.57 283.237 142.543 295.332C140.346 297.987 138.246 301.171 136.602 305.109C128.199 325.179 116.632 307.124 97.5211 311.22C81.9173 314.604 77.039 310.601 63.7064 296.035C59.901 291.881 57.2945 287.494 55.6868 283.014C49.2154 264.981 61.1649 247.122 76.214 239.329C83.3687 235.625 87.4193 235.85 93.0363 230.53C96.705 227.072 100.936 222.241 108.34 213.401C121.47 197.738 161.875 195.836 161.486 235.819C161.392 245.4 189.612 257.249 172.285 276.599L172.299 276.595Z" stroke="white" stroke-width="0.603427" stroke-linecap="round" stroke-linejoin="round"/>
<path d="M168.024 276.538C162.711 282.462 149.589 283.403 139.761 294.804C137.589 297.32 135.456 300.307 133.776 303.966C125.343 322.319 114.214 306.291 95.9397 309.915C81.0923 312.863 76.3356 309.308 63.7905 295.721C60.2276 291.85 57.705 287.754 56.0664 283.511C49.5641 266.573 60.4673 249.954 74.1652 242.122C80.9703 238.237 85.0999 237.753 90.6783 232.515C94.5171 228.914 98.755 224.54 107.196 216.32C121.093 202.775 153.83 202.909 157.62 238.026C158.541 246.484 184.728 257.878 168.024 276.538Z" stroke="white" stroke-width="0.542" stroke-linecap="round" stroke-linejoin="round"/>
<path d="M163.766 276.479C158.788 282.034 146.607 283.561 136.992 294.264C134.848 296.651 132.678 299.419 130.949 302.814C122.513 319.443 111.802 305.472 94.358 308.602C80.2861 311.131 75.6457 308.003 63.8742 295.398C60.5402 291.814 58.1125 287.993 56.4567 283.984C49.9235 268.141 59.7834 252.713 72.1271 244.892C78.5772 240.802 82.7938 239.643 88.3309 234.477C92.3535 230.729 96.4612 226.849 106.052 219.23C120.46 207.764 145.83 210.104 153.756 240.236C155.685 247.596 179.835 258.524 163.752 276.483L163.766 276.479Z" stroke="white" stroke-width="0.480573" stroke-linecap="round" stroke-linejoin="round"/>
<path d="M159.493 276.422C154.85 281.607 143.597 283.724 134.209 293.724C132.092 295.983 129.887 298.544 128.124 301.671C119.713 316.567 109.394 304.672 92.7944 307.305C79.4844 309.42 74.9602 306.718 63.9652 295.106C60.8601 291.809 58.5135 288.267 56.8406 284.492C50.2901 269.74 59.0821 255.463 70.0825 247.697C76.1886 243.388 80.4839 241.58 85.9908 236.471C90.1971 232.575 94.0516 229.163 104.913 222.16C119.62 212.687 138.026 217.448 149.908 242.451C152.899 248.759 174.969 259.161 159.509 276.429L159.493 276.422Z" stroke="white" stroke-width="0.42276" stroke-linecap="round" stroke-linejoin="round"/>
<path d="M155.221 276.367C150.91 281.171 140.602 283.885 131.416 293.203C129.325 295.322 127.098 297.671 125.273 300.538C116.916 313.706 106.961 303.883 91.1885 306.011C78.6403 307.711 74.2461 305.432 64.0248 294.801C61.1512 291.803 58.8968 288.525 57.2067 284.984C50.6391 271.322 58.3497 258.139 68.0338 250.481C73.7879 245.92 78.1673 243.485 83.6329 238.447C88.0093 234.409 91.5042 231.385 103.758 225.084C118.572 217.465 130.521 224.821 146.031 244.664C150.161 249.935 170.074 259.796 155.224 276.378L155.221 276.367Z" stroke="white" stroke-width="0.361333" stroke-linecap="round" stroke-linejoin="round"/>
<path d="M150.962 276.307C146.986 280.741 137.606 284.044 128.646 292.66C126.583 294.651 124.335 296.789 122.459 299.381C114.201 310.82 104.564 303.069 89.6225 304.703C77.8361 305.989 73.5555 304.125 64.1243 294.484C61.4795 291.772 59.32 288.77 57.599 285.467C51.0305 272.903 57.5915 260.772 65.9977 253.261C71.397 248.434 75.8769 245.381 81.2875 240.419C85.8476 236.233 88.9095 233.473 102.616 228.004C117.468 222.075 123.445 232.099 142.166 246.872C147.52 251.095 165.178 260.43 150.964 276.318L150.962 276.307Z" stroke="white" stroke-width="0.299907" stroke-linecap="round" stroke-linejoin="round"/>
<path d="M146.688 276.251C143.047 280.316 134.593 284.197 125.865 292.134C123.827 293.986 121.561 295.924 119.619 298.243C111.52 307.962 102.145 302.287 88.0281 303.404C77.0063 304.287 72.8529 302.835 64.1954 294.175C61.7796 291.75 59.7312 289.032 57.9767 285.955C51.4047 274.478 56.7916 263.357 63.947 256.045C68.956 250.927 73.5608 247.297 78.9412 242.391C83.6851 238.059 86.2844 235.377 101.484 230.909C116.355 226.532 116.701 239.057 138.326 249.062C144.999 252.15 160.322 261.053 146.726 276.228L146.688 276.251Z" stroke="white" stroke-width="0.242093" stroke-linecap="round" stroke-linejoin="round"/>
<path d="M142.417 276.198C139.109 279.882 131.582 284.352 123.07 291.603C121.06 293.326 118.8 295.045 116.783 297.108C108.894 305.14 99.7283 301.506 86.4395 302.119C76.1822 302.598 72.1424 301.561 64.2586 293.883C62.0716 291.746 60.1181 289.303 58.3355 286.475C51.7736 276.081 55.9098 265.955 61.8773 258.861C66.4469 253.43 71.2369 249.23 76.5623 244.4C81.4926 239.931 83.66 237.152 100.309 233.866C115.271 230.911 109.96 245.715 134.428 251.307C142.451 253.144 155.392 261.724 142.42 276.209L142.417 276.198Z" stroke="white" stroke-width="0.180667" stroke-linecap="round" stroke-linejoin="round"/>
<path d="M138.155 276.124C135.196 279.435 128.581 284.487 120.298 291.047C118.299 292.634 116.067 294.165 113.966 295.937C106.354 302.313 97.3317 300.691 84.868 300.787C75.3753 300.863 71.4626 300.237 64.3527 293.541C62.3945 291.691 60.5495 289.519 58.7223 286.933C52.1817 277.607 54.9797 268.476 59.833 261.604C63.914 255.837 68.9273 251.105 74.2088 246.335C79.3393 241.727 81.1355 238.676 99.1557 236.738C114.316 235.104 103.037 252.044 130.553 253.468C139.885 253.943 150.499 262.306 138.15 276.101L138.155 276.124Z" stroke="white" stroke-width="0.11924" stroke-linecap="round" stroke-linejoin="round"/>
<path d="M133.883 276.069C131.258 279.011 125.553 284.633 117.518 290.522C115.544 291.97 113.362 293.342 111.128 294.8C103.814 299.61 94.9029 299.924 83.278 299.5C74.5525 299.184 70.7508 298.963 64.4282 293.244C62.6989 291.681 60.9625 289.781 59.1044 287.433C52.5849 279.175 53.9872 271.043 57.7866 264.4C61.2889 258.286 66.6267 253.018 71.8532 248.323C77.1674 243.569 78.7269 240.136 98.0034 239.675C113.494 239.301 95.831 258.346 126.692 255.689C137.24 254.78 145.623 262.961 133.88 276.058L133.883 276.069Z" stroke="white" stroke-width="0.0614267" stroke-linecap="round" stroke-linejoin="round"/>
<path d="M124.037 276.506C121.898 278.916 117.497 284.626 110.306 289.463C103.082 294.344 93.0733 298.314 79.7902 297.176C72.4088 296.563 68.9398 296.636 63.7648 292.182C62.3681 290.974 60.8359 289.38 59.0644 287.333C53.1721 280.544 53.0898 273.834 55.7468 267.723C58.3622 261.743 63.6456 256.369 68.4277 252.075C73.5061 247.493 74.8445 243.928 93.6516 244.803C100.555 245.125 99.4413 249.509 99.5128 253.604C99.577 258.279 101.087 262.413 117.951 259.357C128.676 257.411 134.303 264.985 124.04 276.518L124.037 276.506Z" stroke="white" stroke-width="0.0614267" stroke-linecap="round" stroke-linejoin="round"/>
<path d="M118.451 277.003C116.477 279.246 112.431 284.485 105.864 288.945C99.2104 293.464 90.048 297.129 77.8668 296.147C71.0406 295.598 67.7579 295.596 62.9215 291.339C61.6312 290.21 60.2601 288.68 58.6278 286.728C53.3305 280.354 53.2361 274.021 55.7361 268.231C58.1147 262.726 62.9755 257.783 67.3379 253.808C72.0022 249.57 73.2547 246.318 90.4211 246.98C96.7806 247.223 95.9253 251.162 96.1125 255.007C96.3227 259.378 97.7326 263.273 113.065 260.771C122.809 259.179 127.869 266.33 118.438 277.006L118.451 277.003Z" stroke="white" stroke-width="0.11924" stroke-linecap="round" stroke-linejoin="round"/>
<path d="M112.87 277.513C111.06 279.591 107.371 284.37 101.441 288.437C95.3596 292.606 87.0297 295.97 75.9642 295.139C69.682 294.67 66.5993 294.589 62.0961 290.506C60.9259 289.452 59.6887 287.994 58.223 286.129C53.5042 280.163 53.4114 274.204 55.7598 268.757C57.918 263.735 62.3397 259.214 66.2853 255.572C70.5437 251.65 71.6994 248.726 87.2415 249.183C93.0733 249.354 92.4327 252.848 92.7521 256.452C93.1082 260.516 94.4176 264.174 108.22 262.226C116.983 260.987 121.439 267.689 112.886 277.521L112.87 277.513Z" stroke="white" stroke-width="0.180667" stroke-linecap="round" stroke-linejoin="round"/>
<path d="M107.298 278.007C105.656 279.931 102.318 284.227 97.0128 287.917C91.5073 291.747 84.0211 294.795 74.0712 294.115C68.3332 293.726 65.4504 293.565 61.283 289.668C60.233 288.69 59.1432 287.3 57.8194 285.541C53.6821 279.994 53.6044 274.405 55.7821 269.282C57.7173 264.732 61.6862 260.637 65.2286 257.322C69.0701 253.732 70.1426 251.133 84.0414 251.366C89.3427 251.453 88.9334 254.51 89.3685 257.865C89.8569 261.628 91.0823 265.055 103.337 263.653C111.133 262.764 114.992 269.039 107.284 278.011L107.298 278.007Z" stroke="white" stroke-width="0.242093" stroke-linecap="round" stroke-linejoin="round"/>
<path d="M101.715 278.505C100.224 280.266 97.2708 284.094 92.5877 287.396C87.6551 290.876 81.0014 293.622 72.1645 293.083C66.9542 292.766 64.2714 292.526 60.4426 288.825C59.5127 287.922 58.5567 286.605 57.3995 284.932C53.8462 279.816 53.7674 274.589 55.7908 269.798C57.5165 265.716 61.0354 262.058 64.1609 259.076C67.5965 255.803 68.5859 253.528 80.8468 253.56C85.6039 253.567 85.4285 256.197 85.993 259.3C86.6274 262.757 87.7797 265.939 98.4758 265.098C105.306 264.56 108.569 270.419 101.72 278.527L101.715 278.505Z" stroke="white" stroke-width="0.299907" stroke-linecap="round" stroke-linejoin="round"/>
<path d="M96.1295 279.002C94.803 280.598 92.2069 283.966 88.1461 286.88C83.7863 290.009 77.9653 292.453 70.244 292.067C65.5778 291.829 63.0949 291.51 59.5993 287.983C58.7895 287.156 57.9811 285.906 56.9631 284.328C53.9774 279.635 53.9248 274.763 55.7803 270.308C57.2856 266.708 60.349 263.465 63.0713 260.811C66.09 257.869 67.0073 255.904 77.6165 255.738C81.8596 255.67 81.8853 257.859 82.5792 260.708C83.3458 263.864 84.4278 266.812 93.5766 266.517C99.4396 266.329 102.106 271.761 96.1021 279.01L96.1295 279.002Z" stroke="white" stroke-width="0.361333" stroke-linecap="round" stroke-linejoin="round"/>
<path d="M90.5576 279.497C89.3985 280.937 87.1705 283.83 83.7182 286.36C79.9314 289.138 74.9456 291.293 68.3509 291.043C64.2289 290.885 61.9486 290.498 58.7862 287.145C58.0856 286.408 57.4246 285.227 56.5705 283.724C54.1551 279.466 54.115 274.952 55.8163 270.829C57.0985 267.701 59.7255 264.892 62.0309 262.569C64.6437 259.944 65.4752 258.292 74.4327 257.929C78.1454 257.777 78.4024 259.528 79.2283 262.136C80.1273 264.99 81.1662 267.697 88.7402 267.955C93.6501 268.113 95.7211 273.13 90.5603 279.508L90.5576 279.497Z" stroke="white" stroke-width="0.42276" stroke-linecap="round" stroke-linejoin="round"/>
<path d="M84.9731 279.992C83.965 281.271 82.1078 283.7 79.2914 285.838C76.0801 288.277 71.927 290.13 66.4452 290.021C62.8673 289.942 60.7733 289.48 57.9605 286.308C57.3799 285.647 56.8528 284.538 56.1543 283.137C54.2983 279.328 54.2954 275.154 55.8259 271.355C56.9014 268.707 59.0593 266.316 60.9616 264.321C63.1575 262.028 63.9361 260.644 71.2364 260.121C74.435 259.893 74.8931 261.203 75.8484 263.558C76.877 266.099 77.8947 268.594 83.8749 269.387C87.8507 269.911 89.2913 274.486 84.9758 280.004L84.9731 279.992Z" stroke="white" stroke-width="0.480573" stroke-linecap="round" stroke-linejoin="round"/>
<path d="M79.3876 280.493C78.5469 281.617 77.0578 283.571 74.8473 285.313C72.2226 287.397 68.8773 288.969 64.5195 288.984C61.472 288.989 59.567 288.463 57.0983 285.45C56.6269 284.88 56.2336 283.842 55.7127 282.513C54.3886 279.161 54.4366 275.323 55.8102 271.845C56.6625 269.668 58.3704 267.714 59.8694 266.048C61.6458 264.075 62.3716 262.959 68.0036 262.291C70.6855 261.976 71.3337 262.86 72.4348 264.97C73.5956 267.209 74.6003 269.527 78.9758 270.809C82.0477 271.702 82.8467 275.85 79.3739 280.497L79.3876 280.493Z" stroke="white" stroke-width="0.542" stroke-linecap="round" stroke-linejoin="round"/>
<path d="M73.8017 280.99C73.1257 281.948 71.9965 283.453 70.4192 284.792C68.37 286.537 65.8491 287.834 62.6261 287.96C60.1255 288.056 58.3794 287.462 56.2849 284.611C55.9199 284.12 55.6632 283.166 55.3198 281.909C54.514 279.017 54.6403 275.508 55.8459 272.365C56.4915 270.667 57.7439 269.129 58.8288 267.805C60.1992 266.149 60.8861 265.237 64.8333 264.477C67.0231 264.056 67.8504 264.529 69.0809 266.386C70.3604 268.327 71.3708 270.547 74.1365 272.235C76.3043 273.558 76.4593 277.207 73.8154 280.987L73.8017 280.99Z" stroke="white" stroke-width="0.603427" stroke-linecap="round" stroke-linejoin="round"/>
<path d="M68.2301 281.483C67.7214 282.286 66.963 283.327 65.9916 284.27C64.5207 285.688 62.8104 286.713 60.7197 286.938C58.7412 287.144 57.1676 286.479 55.4557 283.764C55.1999 283.364 55.0605 282.473 54.9001 281.311C54.5715 278.891 54.8308 275.695 55.8384 272.884C56.2773 271.666 57.0442 270.538 57.7422 269.55C58.6767 268.207 59.3604 267.404 61.606 266.666C63.3121 266.112 64.2966 266.204 65.6729 267.816C67.0846 269.455 67.9801 271.682 69.243 273.676C70.4133 275.526 70.0341 278.586 68.2164 281.487L68.2301 281.483Z" stroke="white" stroke-width="0.66124" stroke-linecap="round" stroke-linejoin="round"/>
<path d="M54.6304 282.931C55.8886 285.517 57.3879 286.299 58.8143 285.919C60.2408 285.539 61.6272 284.011 62.646 281.982C63.6674 279.964 64.3513 277.447 64.389 275.096C64.4294 272.756 63.8374 270.578 62.3043 269.226C60.774 267.885 59.4771 267.952 58.4073 268.85C57.3375 269.747 56.4922 271.464 55.8594 273.399C54.5967 277.281 54.201 282.047 54.6277 282.919L54.6304 282.931Z" stroke="white" stroke-width="0.722667" stroke-linecap="round" stroke-linejoin="round"/>
</g>
<defs>
<filter id="filter0_f_1_14857" x="-56.3997" y="0.600021" width="409.28" height="420.485" filterUnits="userSpaceOnUse" color-interpolation-filters="sRGB">
<feFlood flood-opacity="0" result="BackgroundImageFix"/>
<feBlend mode="normal" in="SourceGraphic" in2="BackgroundImageFix" result="shape"/>
<feGaussianBlur stdDeviation="54.2" result="effect1_foregroundBlur_1_14857"/>
</filter>
<filter id="filter1_f_1_14857" x="-38.9293" y="80.8598" width="413.726" height="380.692" filterUnits="userSpaceOnUse" color-interpolation-filters="sRGB">
<feFlood flood-opacity="0" result="BackgroundImageFix"/>
<feBlend mode="normal" in="SourceGraphic" in2="BackgroundImageFix" result="shape"/>
<feGaussianBlur stdDeviation="54.2" result="effect1_foregroundBlur_1_14857"/>
</filter>
<radialGradient id="paint0_radial_1_14857" cx="0" cy="0" r="1" gradientUnits="userSpaceOnUse" gradientTransform="translate(148.24 210.843) rotate(90) scale(101.843 96.2399)">
<stop stop-color="#340E9B"/>
<stop offset="1" stop-color="#26008E"/>
</radialGradient>
<radialGradient id="paint1_radial_1_14857" cx="0" cy="0" r="1" gradientUnits="userSpaceOnUse" gradientTransform="translate(167.934 271.206) rotate(90) scale(81.9462 98.4633)">
<stop stop-color="#07917C"/>
<stop offset="1" stop-color="#188474"/>
</radialGradient>
</defs>
</svg>
